<?xml version="1.0" encoding="utf-8"?>
<!-- Generator: Adobe Illustrator 23.0.1, SVG Export Plug-In . SVG Version: 6.00 Build 0)  -->
<svg version="1.1" id="Capa_1" xmlns="http://www.w3.org/2000/svg" xmlns:xlink="http://www.w3.org/1999/xlink" x="0px" y="0px"
	 viewBox="0 0 15 15" style="enable-background:new 0 0 15 15;" xml:space="preserve">
<style type="text/css">
	.st0{fill:#FFFFFF;}
</style>
<g>
	<path class="st0" d="M0.05,6.26c0-1.7,0-3.41,0-5.11c0.07,0.19,0.21,0.28,0.41,0.34c1.17,0.34,2.34,0.68,3.5,1.03
		c0.17,0.05,0.33,0.15,0.47,0.25C4.66,2.94,4.87,3.13,5.1,3.32c0.13,0.11,0.26,0.21,0.39,0.32C5.81,3.3,6.12,2.96,6.44,2.62
		C5.9,2.19,5.38,1.76,4.85,1.34C4.81,1.31,4.76,1.29,4.7,1.28C3.39,0.89,2.07,0.5,0.76,0.11C0.5,0.04,0.32,0.14,0.24,0.4
		C0.17,0.6,0.11,0.8,0.05,1.01c0-0.32,0-0.63,0-0.95c4.65,0,9.3,0,13.95,0c0,4.64,0,9.29,0,13.93c-1.72,0-3.44,0-5.17,0
		c0.17-0.06,0.34-0.1,0.5-0.17c0.79-0.34,1.57-0.69,2.36-1.04c0.18-0.08,0.29-0.05,0.38,0.1c0.13,0.21,0.26,0.26,0.49,0.17
		c0.38-0.15,0.75-0.31,1.13-0.46c0.28-0.11,0.34-0.26,0.23-0.54c-0.22-0.54-0.45-1.09-0.67-1.63c-0.54-1.31-1.07-2.62-1.61-3.93
		c-0.07-0.18-0.06-0.31,0.08-0.44c0.06-0.06,0.11-0.13,0.17-0.19c0.18-0.21,0.16-0.42-0.05-0.61c-0.85-0.73-1.69-1.47-2.54-2.2
		C9.08,2.85,8.87,2.86,8.68,3.07c-0.17,0.19-0.33,0.38-0.5,0.58C8.02,3.83,7.9,3.84,7.72,3.69c-0.12-0.1-0.24-0.2-0.37-0.3
		C7.18,3.24,7,3.09,6.82,2.94C6.5,3.29,6.19,3.62,5.9,3.93c0.06,0.13,0.13,0.23,0.15,0.34c0.57,2.94,1.13,5.88,1.7,8.81
		c0.08,0.44,0.33,0.73,0.77,0.86c0.06,0.02,0.12,0.03,0.18,0.04c-2.88,0-5.76,0-8.65,0c0-2.46,0-4.92,0-7.37
		c0.01,0.02,0.02,0.03,0.02,0.05C0.25,7.43,1,7.83,1.74,7.57c0.65-0.23,0.95-0.91,0.7-1.6c-0.19-0.53-0.48-1-0.79-1.46
		C1.54,4.34,1.42,4.19,1.3,4.03C1.24,4.1,1.19,4.15,1.15,4.2C0.69,4.84,0.26,5.49,0.05,6.26z"/>
	<path d="M8.7,13.98c-0.06-0.01-0.12-0.02-0.18-0.04c-0.44-0.12-0.68-0.42-0.77-0.86c-0.56-2.94-1.13-5.88-1.7-8.81
		C6.03,4.16,5.96,4.05,5.9,3.93c0.29-0.31,0.6-0.64,0.92-0.98C7,3.09,7.18,3.24,7.36,3.39c0.12,0.1,0.24,0.2,0.37,0.3
		c0.18,0.15,0.3,0.14,0.46-0.04c0.17-0.19,0.33-0.39,0.5-0.58c0.19-0.22,0.4-0.23,0.62-0.04c0.85,0.73,1.69,1.47,2.54,2.2
		c0.21,0.18,0.23,0.39,0.05,0.61c-0.06,0.07-0.11,0.14-0.17,0.19c-0.14,0.13-0.15,0.27-0.08,0.44c0.54,1.31,1.08,2.62,1.61,3.93
		c0.22,0.54,0.45,1.09,0.67,1.63c0.11,0.27,0.05,0.42-0.23,0.54c-0.38,0.16-0.75,0.31-1.13,0.46c-0.23,0.09-0.36,0.05-0.49-0.17
		c-0.09-0.15-0.2-0.18-0.38-0.1c-0.79,0.35-1.57,0.7-2.36,1.04c-0.16,0.07-0.33,0.12-0.5,0.17C8.79,13.98,8.74,13.98,8.7,13.98z
		 M7.95,7.98C7.79,8.23,7.72,8.49,7.76,8.77c0.19,1.29,0.39,2.57,0.58,3.85c0.07,0.43,0.43,0.62,0.83,0.45
		c0.33-0.14,0.66-0.29,0.99-0.44c0.03-0.01,0.06-0.03,0.09-0.05c-0.39-1.14-0.77-2.27-1.15-3.4C9.02,8.94,8.88,8.73,8.68,8.57
		C8.45,8.37,8.2,8.18,7.95,7.98z M10.72,12.39c0.28-0.12,0.54-0.24,0.8-0.36c0.12-0.06,0.15-0.16,0.12-0.29
		c-0.02-0.06-0.04-0.12-0.06-0.18c-0.37-1.11-0.74-2.21-1.12-3.32c-0.17-0.5-0.52-0.81-1.05-0.86C9.07,7.35,8.73,7.43,8.4,7.57
		C8.37,7.58,8.35,7.61,8.31,7.63c0.2,0.16,0.38,0.31,0.57,0.46c0.36,0.28,0.6,0.64,0.74,1.07c0.23,0.7,0.47,1.4,0.71,2.1
		C10.46,11.63,10.59,12,10.72,12.39z M7.73,7.25c0-0.01,0-0.03-0.01-0.04c-0.12-0.5-0.23-1-0.36-1.5C7.33,5.57,7.2,5.5,7.08,5.53
		c-0.13,0.03-0.21,0.16-0.18,0.3c0.04,0.21,0.1,0.41,0.14,0.62c0.07,0.29,0.13,0.57,0.2,0.86c0.04,0.14,0.15,0.22,0.28,0.2
		C7.64,7.49,7.73,7.39,7.73,7.25z M6.49,4.52c0.04,0.16,0.09,0.36,0.15,0.55c0.04,0.11,0.17,0.16,0.28,0.13
		c0.11-0.03,0.2-0.14,0.18-0.25C7.07,4.74,7.02,4.55,6.96,4.36C6.92,4.25,6.79,4.2,6.68,4.23C6.57,4.25,6.49,4.36,6.49,4.52z"/>
	<path d="M0.05,1.01C0.11,0.8,0.17,0.6,0.24,0.4C0.32,0.14,0.5,0.04,0.76,0.11C2.07,0.5,3.39,0.89,4.7,1.28
		c0.05,0.02,0.11,0.03,0.15,0.07C5.38,1.76,5.9,2.19,6.44,2.62C6.12,2.96,5.81,3.3,5.49,3.64C5.35,3.53,5.23,3.43,5.1,3.32
		C4.87,3.13,4.66,2.94,4.43,2.77c-0.14-0.11-0.3-0.2-0.47-0.25c-1.16-0.35-2.33-0.7-3.5-1.03C0.26,1.42,0.11,1.34,0.05,1.14
		C0.05,1.1,0.05,1.05,0.05,1.01z"/>
	<path d="M0.05,6.26c0.22-0.77,0.64-1.42,1.1-2.05C1.19,4.15,1.24,4.1,1.3,4.03C1.42,4.19,1.54,4.34,1.65,4.5
		c0.32,0.46,0.61,0.93,0.79,1.46c0.25,0.69-0.05,1.37-0.7,1.6C1,7.83,0.25,7.43,0.07,6.66c0-0.02-0.01-0.03-0.02-0.05
		C0.05,6.49,0.05,6.38,0.05,6.26z"/>
	<path class="st0" d="M7.95,7.98c0.26,0.21,0.5,0.39,0.74,0.59C8.88,8.73,9.02,8.94,9.1,9.18c0.39,1.13,0.77,2.26,1.15,3.4
		c-0.03,0.02-0.06,0.04-0.09,0.05c-0.33,0.15-0.66,0.29-0.99,0.44c-0.4,0.17-0.76-0.03-0.83-0.45c-0.2-1.28-0.39-2.57-0.58-3.85
		C7.72,8.49,7.79,8.23,7.95,7.98z"/>
	<path class="st0" d="M10.72,12.39c-0.13-0.39-0.26-0.76-0.39-1.14c-0.24-0.7-0.47-1.4-0.71-2.1C9.48,8.72,9.24,8.37,8.88,8.09
		C8.7,7.94,8.51,7.79,8.31,7.63C8.35,7.61,8.37,7.58,8.4,7.57c0.33-0.14,0.67-0.22,1.02-0.19c0.53,0.05,0.88,0.36,1.05,0.86
		c0.37,1.11,0.74,2.21,1.12,3.32c0.02,0.06,0.04,0.12,0.06,0.18c0.03,0.13-0.01,0.23-0.12,0.29C11.26,12.15,10.99,12.27,10.72,12.39
		z"/>
	<path class="st0" d="M7.73,7.25c0,0.13-0.09,0.24-0.21,0.26c-0.13,0.02-0.24-0.05-0.28-0.2c-0.07-0.28-0.14-0.57-0.2-0.86
		c-0.05-0.21-0.1-0.41-0.14-0.62c-0.03-0.15,0.05-0.27,0.18-0.3C7.2,5.5,7.33,5.57,7.37,5.71c0.12,0.5,0.24,1,0.36,1.5
		C7.73,7.23,7.73,7.24,7.73,7.25z"/>
	<path class="st0" d="M6.49,4.52c0-0.16,0.07-0.26,0.19-0.29C6.79,4.2,6.92,4.25,6.96,4.36c0.06,0.19,0.11,0.38,0.15,0.57
		c0.02,0.11-0.07,0.23-0.18,0.25C6.82,5.22,6.68,5.17,6.65,5.06C6.58,4.87,6.54,4.67,6.49,4.52z"/>
</g>
</svg>
